<?xml version="1.0" encoding="UTF-8"?>
<svg width="23px" height="32px" viewBox="0 0 23 32" version="1.1" xmlns="http://www.w3.org/2000/svg" xmlns:xlink="http://www.w3.org/1999/xlink">
    <!-- Generator: Sketch 53.2 (72643) - https://sketchapp.com -->
    <title>icon_green_pin</title>
    <desc>Created with Sketch.</desc>
    <g id="icon_green_pin" stroke="none" stroke-width="1" fill="none" fill-rule="evenodd">
        <g id="baseline-place-24px" transform="translate(1.000000, 1.000000)" fill="#472449" fill-rule="nonzero" stroke="#FFFFFF">
            <path d="M10.5,-0.5 C16.5811424,-0.5 21.5,4.41885763 21.5,10.5 C21.5,12.38304 20.9347388,14.5350702 19.8883687,16.9099566 C18.9672048,19.0006696 17.6965816,21.2119855 16.1644822,23.4827757 C15.0071609,25.1980912 13.7680405,26.8487766 12.528854,28.3756313 C12.0950069,28.910193 11.6919705,29.39129 11.3299762,29.8114619 C11.1120227,30.0644437 10.9556351,30.2414968 10.8710513,30.3351431 L10.5,30.7459499 L10.1289487,30.3351431 C10.0443649,30.2414968 9.88797731,30.0644437 9.67002378,29.8114619 C9.30802947,29.39129 8.90499309,28.910193 8.47114595,28.3756313 C7.23195954,26.8487766 5.99283913,25.1980912 4.83551778,23.4827757 C3.3034184,21.2119855 2.03279518,19.0006696 1.11163131,16.9099566 C0.0652612019,14.5350702 -0.5,12.38304 -0.5,10.5 C-0.5,4.41885763 4.41885763,-0.5 10.5,-0.5 Z M10.5,13.75 C12.2938576,13.75 13.75,12.2938576 13.75,10.5 C13.75,8.70614237 12.2938576,7.25 10.5,7.25 C8.70614237,7.25 7.25,8.70614237 7.25,10.5 C7.25,12.2938576 8.70614237,13.75 10.5,13.75 Z" id="Shape"></path>
        </g>
    </g>
</svg>