<?xml version="1.0" encoding="utf-8"?>
<!-- Generator: Adobe Illustrator 20.1.0, SVG Export Plug-In . SVG Version: 6.00 Build 0)  -->
<svg version="1.1" id="Capa_1" xmlns="http://www.w3.org/2000/svg" xmlns:xlink="http://www.w3.org/1999/xlink" x="0px" y="0px" width="40px" height="40px"
	 viewBox="0 0 25.3 42.2" style="enable-background:new 0 0 25.3 42.2;" xml:space="preserve">
<g>
	<g>
		<g>
			<path d="M25.2,12.6c0-6.9-5.6-12.5-12.5-12.5S0.1,5.7,0.1,12.6c0,9.9,12.5,24.6,12.5,24.6S25.2,22.5,25.2,12.6z M6.5,11.9
				c0-3.4,2.8-6.2,6.2-6.2s6.2,2.8,6.2,6.2s-2.8,6.2-6.2,6.2S6.5,15.3,6.5,11.9z"/>
			<circle cx="12.7" cy="11.9" r="3"/>
			<path d="M16.4,34.3c-0.5,0.8-1,1.5-1.5,2c4.2,0.3,6.9,1.2,8,1.8c-1.2,0.8-4.8,1.9-10.2,1.9c-5.5,0-9-1.1-10.2-1.9
				c1-0.7,3.8-1.6,8-1.8c-0.4-0.5-0.9-1.2-1.5-2c-5.2,0.5-8.9,2-8.9,3.8c0,2.2,5.7,4,12.7,4c7,0,12.7-1.8,12.7-4
				C25.3,36.3,21.6,34.8,16.4,34.3z"/>
		</g>
	</g>
</g>
</svg>
