<?xml version="1.0" encoding="UTF-8"?>
<svg width="30px" height="42px" viewBox="0 0 30 42" version="1.1" xmlns="http://www.w3.org/2000/svg" xmlns:xlink="http://www.w3.org/1999/xlink">
    <!-- Generator: Sketch 53.2 (72643) - https://sketchapp.com -->
    <title>icon_red_pin</title>
    <desc>Created with Sketch.</desc>
    <g id="icon_red_pin" stroke="none" stroke-width="1" fill="none" fill-rule="evenodd">
        <g id="baseline-place-24px" transform="translate(1.000000, 1.000000)" fill="#ea412a" fill-rule="nonzero" stroke="#FFFFFF">
            <path d="M14,-0.5 C22.0161424,-0.5 28.5,5.98385763 28.5,14 C28.5,16.4842447 27.7519208,19.3322891 26.3653061,22.4794093 C25.1415403,25.2569206 23.45214,28.1970507 21.4144822,31.2171507 C19.8743484,33.499849 18.2250717,35.6969212 16.575729,37.7291469 C15.9983272,38.4405885 15.4619901,39.0808041 14.9803668,39.6398311 C14.690636,39.9761258 14.4829789,40.2112233 14.3710513,40.3351431 L14,40.7459499 L13.6289487,40.3351431 C13.5170211,40.2112233 13.309364,39.9761258 13.0196332,39.6398311 C12.5380099,39.0808041 12.0016728,38.4405885 11.424271,37.7291469 C9.77492829,35.6969212 8.12565163,33.499849 6.58551778,31.2171507 C4.54785995,28.1970507 2.85845971,25.2569206 1.63469395,22.4794093 C0.248079211,19.3322891 -0.5,16.4842447 -0.5,14 C-0.5,5.98385763 5.98385763,-0.5 14,-0.5 Z M14,18.5 C16.4838576,18.5 18.5,16.4838576 18.5,14 C18.5,11.5161424 16.4838576,9.5 14,9.5 C11.5161424,9.5 9.5,11.5161424 9.5,14 C9.5,16.4838576 11.5161424,18.5 14,18.5 Z" id="Shape"></path>
        </g>
    </g>
</svg>