<svg width="36" height="36" viewBox="0 0 24 24" fill="none" xmlns="http://www.w3.org/2000/svg">
<path fill-rule="evenodd" clip-rule="evenodd" d="M6.34315 4.34315C7.84344 2.84285 9.87827 2 12 2C14.1217 2 16.1566 2.84285 17.6569 4.34315C19.1571 5.84344 20 7.87827 20 10C20 15.4 13 21.5 12.65 21.76C12.4689 21.9149 12.2384 22.0001 12 22.0001C11.7616 22.0001 11.5311 21.9149 11.35 21.76L11.3483 21.7586C11.025 21.4784 4 15.3904 4 10C4 7.87827 4.84285 5.84344 6.34315 4.34315ZM12 13C13.6569 13 15 11.6569 15 10C15 8.34315 13.6569 7 12 7C10.3431 7 9 8.34315 9 10C9 11.6569 10.3431 13 12 13Z" fill="#472449"/>
</svg>
